<svg id="Layer_1" xmlns="http://www.w3.org/2000/svg" viewBox="-242 382.7 126.8 29.3"><style>.st0{fill:#010101}.st1{fill:#e54232}.st2{fill:#fdfdfd}</style><g id="Layer_x0020_1"><path class="st0" d="M-173.2 402.7h3.2v-9.8c.9 1.6 1.7 3.5 2.5 5.2.4.8.8 1.6 1.2 2.5 1.4 3.6 2.3 2.6 3.5 0l3.5-7.6v9.8h3.1V386h-3.6l-4.7 11-5-11h-3.5l-.2 16.7zm40.7 0h3.2v-6.8c4.9-.1 2.3 7.9 9.4 7v-2.1c-1.9-.6-1.8-.6-2.7-2.5-.8-1.4-1-2.6-2.6-3.1.8-.5 4.5-1.6 3.5-6.1-1-4-6.2-3.2-10.9-3.2v16.8zm-104.9 3.9l2.7-2.6c-1-2.6-4.8-7.2.5-12.8 3.5-3.5 8.7-3.5 12.7 0l2.8-2.6c-3.2-4.5-12.7-5.8-18.3-.1-5 5-5.1 12.5-.4 18.1zm44.1-5.3v-7.8h-6.1l.1 2.8h2.8l-.1 3.2c-9.4 3.4-11.8-15.8 2.3-10.7l.6-2.7c-14.7-5.3-17.2 11.7-9.4 15.6 1.7 1 6.3 1.1 9.8-.4zm2.3 1.3h3.4l1.5-4 5.8.1c1 2.5 1.7 4 1.7 4h3.1l-6.7-16.8h-1.9l-6.9 16.7zm45.4.1h10v-2.8h-6.7v-4.6l5.2-.1v-2.7h-5.3v-3.8h6.7v-2.8h-9.9z"/><path class="st1" d="M-233.7 404.8l-2.7 2.5c3 4.5 14.5 5.6 19.1-1.8l-2.8-2.3c-1.8 1.6-2.7 3.1-5.9 3.6-3.4.5-5.7-.9-7.7-2z"/><path class="st0" d="M-152.5 402.7h3.2v-16.8h-3.2zm-64.2 1.7v-5.8h-7.1"/><path class="st2" d="M-129.2 393c1.8 0 4.6.3 4.6-1.8-.1-2.9-2.9-2.3-4.6-2.3v4.1z"/><path class="st1" d="M-234.1 397.7l2.5 2.5 2.5-2.5-2.4-2.5-2.6 2.5z"/><path class="st2" d="M-184.9 396.1h3.5l-1.7-4.5-1.8 4.5z"/><path d="M-200.9 406.8c.2 0 .4-.1.7-.1.4 0 .6.1.8.2.1.1.2.3.2.5 0 .3-.2.6-.5.7.2.1.3.3.4.5.1.4.1.6.2.7h-.4c0-.1-.1-.3-.2-.6-.1-.4-.2-.5-.5-.5h-.3v1.1h-.3v-2.5zm.4 1.2h.3c.4 0 .6-.2.6-.5s-.2-.5-.6-.5h-.3v1zm3.1.2h-1v1h1.1v.3h-1.5v-2.6h1.4v.3h-1.1v.8h1v.2zm1 .4l-.3.8h-.4l.9-2.6h.4l.9 2.6h-.4l-.3-.8h-.8zm.9-.3l-.3-.8c-.1-.2-.1-.3-.1-.5 0 .2-.1.3-.1.5l-.3.8h.8zm1.1-1.5c.2 0 .5-.1.7-.1.5 0 .8.1 1.1.3.2.2.4.5.4.9s-.1.8-.4 1c-.2.2-.7.4-1.2.4h-.6v-2.5zm.3 2.3h.3c.7 0 1.1-.4 1.1-1.1 0-.6-.3-1-1.1-1h-.4v2.1zm3.5-.5l-.3.8h-.4l.9-2.6h.4l.9 2.6h-.4l-.3-.8h-.8zm.9-.3l-.3-.8c-.1-.2-.1-.3-.1-.5 0 .2-.1.3-.1.5l-.3.8h.8zm1.1 1.1v-2.6h.4l.8 1.3c.2.3.3.6.5.9v-2.2h.3v2.6h-.3l-.8-1.3c-.2-.3-.4-.6-.5-.9v2.2h-.4zm2.6-2.6c.2 0 .5-.1.7-.1.5 0 .8.1 1.1.3.2.2.4.5.4.9s-.1.8-.4 1c-.2.2-.7.4-1.2.4h-.6v-2.5zm.3 2.3h.3c.7 0 1.1-.4 1.1-1.1 0-.6-.3-1-1.1-1h-.4v2.1zm3.5-2.3v2.6h-.3v-2.6h.3zm.6 2.6v-2.6h.4l.8 1.3c.2.3.3.6.5.9v-2.2h.3v2.6h-.3l-.8-1.3c-.2-.3-.4-.6-.5-.9v2.2h-.4zm3-2.3h-.8v-.3h2v.3h-.8v2.4h-.3v-2.4zm2.8 1.1h-1v1h1.1v.3h-1.5v-2.6h1.4v.3h-1.1v.8h1v.2zm.6-1.4c.2 0 .4-.1.7-.1.4 0 .6.1.8.2.1.1.2.3.2.5 0 .3-.2.6-.5.7.2.1.3.3.4.5.1.4.1.6.2.7h-.4c0-.1-.1-.3-.2-.6-.1-.4-.2-.5-.5-.5h-.3v1.1h-.3v-2.5zm.3 1.2h.3c.4 0 .6-.2.6-.5s-.2-.5-.6-.5h-.3v1zm2.3.6l-.3.8h-.4l.9-2.6h.4l.9 2.6h-.4l-.3-.8h-.8zm.8-.3l-.3-.8c-.1-.2-.1-.3-.1-.5 0 .2-.1.3-.1.5l-.3.8h.8zm2.9 1c-.1.1-.4.1-.7.1-.7 0-1.3-.5-1.3-1.3s.6-1.4 1.4-1.4c.3 0 .5.1.6.1l-.1.3c-.1-.1-.3-.1-.5-.1-.6 0-1 .4-1 1.1 0 .6.4 1.1 1 1.1.2 0 .4 0 .6-.1v.2zm1-2.2h-.8v-.3h2v.3h-.8v2.4h-.3v-2.4zm2.6 2.3l-.7-2.6h.4l.3 1.3c.1.3.1.7.2.9 0-.3.1-.6.2-.9l.4-1.3h.4l.3 1.3c.1.3.1.6.2.9.1-.3.1-.6.2-.9l.3-1.3h.3l-.7 2.6h-.4l-.3-1.4c-.1-.3-.1-.6-.2-.9 0 .3-.1.5-.2.9l-.4 1.4h-.3zm3.2-2.6v2.6h-.3v-2.6h.3zm1.1.3h-.8v-.3h2v.3h-.8v2.4h-.3v-2.4zm1.8-.3v1.1h1.3v-1.1h.3v2.6h-.3v-1.2h-1.3v1.2h-.3v-2.6h.3zm3.1 2.6v-2.6h.4l.8 1.3c.2.3.3.6.5.9v-2.2h.3v2.6h-.3l-.8-1.3c-.2-.3-.4-.6-.5-.9v2.2h-.4zm3.9-1.2h-1v1h1.1v.3h-1.5v-2.6h1.4v.3h-1.1v.8h1v.2zm1 1.2l-.7-2.6h.4l.3 1.3c.1.3.1.7.2.9 0-.3.1-.6.2-.9l.4-1.3h.4l.3 1.3c.1.3.1.6.2.9.1-.3.1-.6.2-.9l.3-1.3h.3l-.7 2.6h-.4l-.3-1.4c-.1-.3-.1-.6-.2-.9 0 .3-.1.5-.2.9l-.4 1.4h-.3zm4.1-2.6v2.6h-.3v-2.6h.3zm.6 2.6v-2.6h.4l.8 1.3c.2.3.3.6.5.9v-2.2h.3v2.6h-.3l-.8-1.3c-.2-.3-.4-.6-.5-.9v2.2h-.4zm2.6-2.6h1.4v.3h-1.1v.9h1v.3h-1v1.2h-.3v-2.7zm4.1 1.3c0 .9-.6 1.4-1.2 1.4-.7 0-1.2-.5-1.2-1.3s.5-1.4 1.2-1.4c.8-.1 1.2.5 1.2 1.3zm-2 0c0 .6.3 1.1.8 1.1s.8-.5.8-1.1c0-.5-.3-1.1-.8-1.1-.6 0-.8.5-.8 1.1zm2.5-1.3c.2 0 .4-.1.7-.1.4 0 .6.1.8.2.1.1.2.3.2.5 0 .3-.2.6-.5.7.2.1.3.3.4.5.1.4.1.6.2.7h-.4c0-.1-.1-.3-.2-.6-.1-.4-.2-.5-.5-.5h-.3v1.1h-.3v-2.5zm.3 1.2h.3c.4 0 .6-.2.6-.5s-.2-.5-.6-.5h-.3v1zm4 .3v-1.1c-.1.3-.2.6-.3 1l-.5 1.3h-.3l-.4-1.3c-.1-.4-.2-.7-.3-1 0 .3 0 .8-.1 1.2l-.1 1.1h-.3l.2-2.6h.4l.5 1.3.3.9.3-.9.5-1.3h.4l.2 2.6h-.3l-.2-1.2zm1.3.3l-.3.8h-.4l.9-2.6h.4l.9 2.6h-.4l-.3-.8h-.8zm.9-.3l-.3-.8c-.1-.2-.1-.3-.1-.5 0 .2-.1.3-.1.5l-.3.8h.8zm1.3-1.2h-.8v-.3h2v.3h-.8v2.4h-.3v-2.4zm1.8-.3v2.6h-.3v-2.6h.3zm2.8 1.3c0 .9-.6 1.4-1.2 1.4-.7 0-1.2-.5-1.2-1.3s.5-1.4 1.2-1.4c.7-.1 1.2.5 1.2 1.3zm-2 0c0 .6.3 1.1.8 1.1s.8-.5.8-1.1c0-.5-.3-1.1-.8-1.1-.6 0-.8.5-.8 1.1zm2.4 1.3v-2.6h.4l.8 1.3c.2.3.3.6.5.9v-2.2h.3v2.6h-.3l-.8-1.3c-.2-.3-.4-.6-.5-.9v2.2h-.4z" fill="#373435"/><path class="st1" d="M-212.7 384.7h.7v25.2h-.7z"/></g></svg>